<svg xmlns="http://www.w3.org/2000/svg" viewBox="0 0 820 526" font-family="-apple-system,Segoe UI,Roboto,Helvetica,Arial,sans-serif">
<rect x="0" y="0" width="820" height="526" rx="14" fill="#ffffff" stroke="#e5e7eb"/>
<text x="40" y="46" font-size="23" font-weight="700" fill="#0f172a">Total throughput — geist vs llama.cpp</text>
<text x="40" y="72" font-size="13.5" fill="#475569">Raspberry Pi 5  ·  Gemma 4 E2B-it (Q4_K_M)  ·  4 threads  ·  end-to-end tokens/s, higher is better</text>
<rect x="250" y="86" width="13" height="13" rx="2.5" fill="#0ea5a4"/>
<text x="269" y="97" font-size="13" fill="#334155">geist</text>
<rect x="318.0" y="86" width="13" height="13" rx="2.5" fill="#64748b"/>
<text x="337.0" y="97" font-size="13" fill="#334155">llama.cpp</text>
<rect x="416.4" y="86" width="13" height="13" rx="2.5" fill="#cbd5e1"/>
<text x="435.4" y="97" font-size="13" fill="#334155">+ OpenBLAS</text>
<line x1="80" y1="410.0" x2="780" y2="410.0" stroke="#cbd5e1"/>
<text x="68" y="414.0" font-size="12" fill="#94a3b8" text-anchor="end">0</text>
<line x1="80" y1="361.7" x2="780" y2="361.7" stroke="#eef2f6"/>
<text x="68" y="365.7" font-size="12" fill="#94a3b8" text-anchor="end">2</text>
<line x1="80" y1="313.3" x2="780" y2="313.3" stroke="#eef2f6"/>
<text x="68" y="317.3" font-size="12" fill="#94a3b8" text-anchor="end">4</text>
<line x1="80" y1="265.0" x2="780" y2="265.0" stroke="#eef2f6"/>
<text x="68" y="269.0" font-size="12" fill="#94a3b8" text-anchor="end">6</text>
<line x1="80" y1="216.7" x2="780" y2="216.7" stroke="#eef2f6"/>
<text x="68" y="220.7" font-size="12" fill="#94a3b8" text-anchor="end">8</text>
<line x1="80" y1="168.3" x2="780" y2="168.3" stroke="#eef2f6"/>
<text x="68" y="172.3" font-size="12" fill="#94a3b8" text-anchor="end">10</text>
<line x1="80" y1="120.0" x2="780" y2="120.0" stroke="#eef2f6"/>
<text x="68" y="124.0" font-size="12" fill="#94a3b8" text-anchor="end">12</text>
<text transform="translate(28,265) rotate(-90)" font-size="13" fill="#64748b" text-anchor="middle">total tok/s</text>
<rect x="160.0" y="197.3" width="54" height="212.7" rx="3" fill="#0ea5a4"/>
<text x="187.0" y="189.3" font-size="13.5" font-weight="700" fill="#0e7490" text-anchor="middle">8.8</text>
<rect x="228.0" y="211.8" width="54" height="198.2" rx="3" fill="#64748b"/>
<text x="255.0" y="203.8" font-size="13.5" fill="#475569" text-anchor="middle">8.2</text>
<rect x="296.0" y="219.1" width="54" height="190.9" rx="3" fill="#cbd5e1"/>
<text x="323.0" y="211.1" font-size="13.5" fill="#475569" text-anchor="middle">7.9</text>
<text x="255.0" y="436" font-size="13.5" font-weight="600" fill="#334155" text-anchor="middle">short prompt</text>
<text x="255.0" y="454" font-size="11.5" fill="#94a3b8" text-anchor="middle">32 prompt + 128 decode</text>
<text x="255.0" y="474" font-size="12" font-weight="600" fill="#0ea5a4" text-anchor="middle">geist leads end-to-end</text>
<rect x="510.0" y="141.8" width="54" height="268.2" rx="3" fill="#0ea5a4"/>
<text x="537.0" y="133.8" font-size="13.5" font-weight="700" fill="#0e7490" text-anchor="middle">11.1</text>
<rect x="578.0" y="136.9" width="54" height="273.1" rx="3" fill="#64748b"/>
<text x="605.0" y="128.9" font-size="13.5" fill="#475569" text-anchor="middle">11.3</text>
<rect x="646.0" y="141.8" width="54" height="268.2" rx="3" fill="#cbd5e1"/>
<text x="673.0" y="133.8" font-size="13.5" fill="#475569" text-anchor="middle">11.1</text>
<text x="605.0" y="436" font-size="13.5" font-weight="600" fill="#334155" text-anchor="middle">longer prompt</text>
<text x="605.0" y="454" font-size="11.5" fill="#94a3b8" text-anchor="middle">128 prompt + 128 decode</text>
<text x="605.0" y="474" font-size="12" font-weight="600" fill="#64748b" text-anchor="middle">≈ tie (prefill weighs in)</text>
<text x="40" y="510" font-size="11" fill="#94a3b8">total = (P+D) / (P/prefill + D/decode), each engine cold-started under a ≤50 °C gate · benchmark/total_tps.py</text>
</svg>
