<svg xmlns="http://www.w3.org/2000/svg" viewBox="0 0 660 528" width="100%" font-family="system-ui,sans-serif">
<rect x="0" y="0" width="660" height="528" fill="#ffffff" rx="10"/>
<rect x="54" y="10" width="11" height="11" fill="#378ADD" rx="2"/>
<text x="70" y="20" font-size="12" fill="#444">prefill t/s</text>
<rect x="164" y="10" width="11" height="11" fill="#1D9E75" rx="2"/>
<text x="180" y="20" font-size="12" fill="#444">decode t/s</text>
<rect x="274" y="10" width="11" height="11" fill="#D85A30" rx="2"/>
<text x="290" y="20" font-size="12" fill="#444">total t/s</text>
<text x="54" y="56" font-size="13" font-weight="500" fill="#1a1a1a">32-token prompt + 128 decode  —  decode-heavy: geist leads total</text>
<line x1="54" y1="240.0" x2="644" y2="240.0" stroke="#e3e3e0" stroke-width="1"/>
<text x="48" y="244.0" font-size="11" fill="#777" text-anchor="end">0</text>
<line x1="54" y1="196.0" x2="644" y2="196.0" stroke="#e3e3e0" stroke-width="1"/>
<text x="48" y="200.0" font-size="11" fill="#777" text-anchor="end">12</text>
<line x1="54" y1="152.0" x2="644" y2="152.0" stroke="#e3e3e0" stroke-width="1"/>
<text x="48" y="156.0" font-size="11" fill="#777" text-anchor="end">24</text>
<line x1="54" y1="108.0" x2="644" y2="108.0" stroke="#e3e3e0" stroke-width="1"/>
<text x="48" y="112.0" font-size="11" fill="#777" text-anchor="end">36</text>
<line x1="54" y1="64.0" x2="644" y2="64.0" stroke="#e3e3e0" stroke-width="1"/>
<text x="48" y="68.0" font-size="11" fill="#777" text-anchor="end">48</text>
<rect x="107.3" y="130.0" width="26" height="110.0" fill="#378ADD" rx="2"/>
<text x="120.3" y="127.0" font-size="10" fill="#444" text-anchor="middle">30.0</text>
<rect x="139.3" y="212.5" width="26" height="27.5" fill="#1D9E75" rx="2"/>
<text x="152.3" y="209.5" font-size="10" fill="#444" text-anchor="middle">7.5</text>
<rect x="171.3" y="207.6" width="26" height="32.4" fill="#D85A30" rx="2"/>
<text x="184.3" y="204.6" font-size="10" fill="#444" text-anchor="middle">8.8</text>
<text x="152.3" y="256.0" font-size="12" fill="#1a1a1a" text-anchor="middle">geist</text>
<rect x="304.0" y="98.8" width="26" height="141.2" fill="#378ADD" rx="2"/>
<text x="317.0" y="95.8" font-size="10" fill="#444" text-anchor="middle">38.5</text>
<rect x="336.0" y="215.0" width="26" height="25.0" fill="#1D9E75" rx="2"/>
<text x="349.0" y="212.0" font-size="10" fill="#444" text-anchor="middle">6.8</text>
<rect x="368.0" y="210.0" width="26" height="30.0" fill="#D85A30" rx="2"/>
<text x="381.0" y="207.0" font-size="10" fill="#444" text-anchor="middle">8.2</text>
<text x="349.0" y="256.0" font-size="12" fill="#1a1a1a" text-anchor="middle">llama.cpp CPU</text>
<rect x="500.7" y="112.8" width="26" height="127.2" fill="#378ADD" rx="2"/>
<text x="513.7" y="109.8" font-size="10" fill="#444" text-anchor="middle">34.7</text>
<rect x="532.7" y="215.8" width="26" height="24.2" fill="#1D9E75" rx="2"/>
<text x="545.7" y="212.8" font-size="10" fill="#444" text-anchor="middle">6.6</text>
<rect x="564.7" y="211.1" width="26" height="28.9" fill="#D85A30" rx="2"/>
<text x="577.7" y="208.1" font-size="10" fill="#444" text-anchor="middle">7.9</text>
<text x="545.7" y="256.0" font-size="12" fill="#1a1a1a" text-anchor="middle">llama.cpp BLAS</text>
<text x="54" y="300" font-size="13" font-weight="500" fill="#1a1a1a">128-token prompt + 128 decode  —  more prefill: near tie</text>
<line x1="54" y1="484.0" x2="644" y2="484.0" stroke="#e3e3e0" stroke-width="1"/>
<text x="48" y="488.0" font-size="11" fill="#777" text-anchor="end">0</text>
<line x1="54" y1="440.0" x2="644" y2="440.0" stroke="#e3e3e0" stroke-width="1"/>
<text x="48" y="444.0" font-size="11" fill="#777" text-anchor="end">12</text>
<line x1="54" y1="396.0" x2="644" y2="396.0" stroke="#e3e3e0" stroke-width="1"/>
<text x="48" y="400.0" font-size="11" fill="#777" text-anchor="end">24</text>
<line x1="54" y1="352.0" x2="644" y2="352.0" stroke="#e3e3e0" stroke-width="1"/>
<text x="48" y="356.0" font-size="11" fill="#777" text-anchor="end">36</text>
<line x1="54" y1="308.0" x2="644" y2="308.0" stroke="#e3e3e0" stroke-width="1"/>
<text x="48" y="312.0" font-size="11" fill="#777" text-anchor="end">48</text>
<rect x="107.3" y="361.2" width="26" height="122.8" fill="#378ADD" rx="2"/>
<text x="120.3" y="358.2" font-size="10" fill="#444" text-anchor="middle">33.5</text>
<rect x="139.3" y="459.5" width="26" height="24.5" fill="#1D9E75" rx="2"/>
<text x="152.3" y="456.5" font-size="10" fill="#444" text-anchor="middle">6.7</text>
<rect x="171.3" y="443.2" width="26" height="40.8" fill="#D85A30" rx="2"/>
<text x="184.3" y="440.2" font-size="10" fill="#444" text-anchor="middle">11.1</text>
<text x="152.3" y="500.0" font-size="12" fill="#1a1a1a" text-anchor="middle">geist</text>
<rect x="304.0" y="342.5" width="26" height="141.5" fill="#378ADD" rx="2"/>
<text x="317.0" y="339.5" font-size="10" fill="#444" text-anchor="middle">38.6</text>
<rect x="336.0" y="459.6" width="26" height="24.4" fill="#1D9E75" rx="2"/>
<text x="349.0" y="456.6" font-size="10" fill="#444" text-anchor="middle">6.7</text>
<rect x="368.0" y="442.4" width="26" height="41.6" fill="#D85A30" rx="2"/>
<text x="381.0" y="439.4" font-size="10" fill="#444" text-anchor="middle">11.3</text>
<text x="349.0" y="500.0" font-size="12" fill="#1a1a1a" text-anchor="middle">llama.cpp CPU</text>
<rect x="500.7" y="343.6" width="26" height="140.4" fill="#378ADD" rx="2"/>
<text x="513.7" y="340.6" font-size="10" fill="#444" text-anchor="middle">38.3</text>
<rect x="532.7" y="460.2" width="26" height="23.8" fill="#1D9E75" rx="2"/>
<text x="545.7" y="457.2" font-size="10" fill="#444" text-anchor="middle">6.5</text>
<rect x="564.7" y="443.4" width="26" height="40.6" fill="#D85A30" rx="2"/>
<text x="577.7" y="440.4" font-size="10" fill="#444" text-anchor="middle">11.1</text>
<text x="545.7" y="500.0" font-size="12" fill="#1a1a1a" text-anchor="middle">llama.cpp BLAS</text>
</svg>